<?xml version="1.0" standalone="no"?>
<!DOCTYPE svg PUBLIC "-//W3C//DTD SVG 20010904//EN"
 "http://www.w3.org/TR/2001/REC-SVG-20010904/DTD/svg10.dtd">
<svg version="1.0" xmlns="http://www.w3.org/2000/svg"
 width="1280.000000pt" height="1280.000000pt" viewBox="0 0 1280.000000 1280.000000"
 preserveAspectRatio="xMidYMid meet">
<g transform="translate(0.000000,1280.000000) scale(0.100000,-0.100000)"
fill="#000000" stroke="none">
<path d="M6217 12794 c-3 -4 -57 -10 -119 -15 -155 -11 -650 -59 -666 -64 -9
-3 -12 -14 -8 -32 4 -16 42 -251 86 -523 140 -878 196 -1297 188 -1433 -7
-131 -67 -235 -437 -752 -382 -534 -515 -740 -671 -1040 -205 -393 -295 -705
-319 -1106 -26 -430 51 -860 214 -1194 83 -170 148 -266 256 -379 215 -226
473 -336 784 -336 181 0 327 45 602 184 81 41 150 73 152 71 9 -9 -28 -41
-113 -97 -406 -267 -844 -276 -1228 -25 -232 151 -408 361 -554 660 -61 126
-125 301 -159 434 -158 628 -20 1303 422 2069 102 176 203 334 426 669 283
424 360 554 406 693 35 103 27 222 -40 612 -49 283 -74 409 -260 1319 -16 79
-29 146 -29 148 0 10 -58 -3 -277 -62 -133 -36 -250 -65 -261 -65 -22 0 -251
-73 -278 -89 -10 -6 -129 -52 -263 -101 -134 -49 -246 -91 -248 -93 -2 -2 22
-60 53 -128 425 -936 702 -1591 734 -1733 24 -107 -20 -261 -250 -876 -82
-217 -174 -471 -205 -564 -238 -716 -291 -1191 -190 -1701 142 -711 540 -1299
1012 -1495 149 -62 210 -74 403 -74 157 0 185 3 272 27 54 14 132 44 175 66
102 53 261 173 402 305 108 100 131 118 131 97 0 -19 -97 -140 -174 -217 -527
-523 -1284 -421 -1843 249 -105 126 -187 252 -268 412 -294 579 -319 1237 -79
2105 25 91 117 379 204 640 174 519 214 658 230 797 10 78 9 102 -5 155 -19
75 -118 309 -243 573 -164 348 -612 1235 -623 1235 -6 0 -116 -61 -245 -135
-128 -74 -237 -135 -243 -135 -12 0 -163 -98 -208 -135 -18 -15 -128 -94 -245
-176 -117 -82 -214 -154 -216 -158 -2 -5 145 -191 325 -412 566 -696 860
-1077 909 -1175 56 -113 55 -254 -6 -864 -65 -653 -74 -817 -67 -1160 6 -282
21 -438 64 -630 100 -456 361 -927 704 -1269 510 -508 1093 -617 1581 -294
116 76 273 262 412 486 82 133 90 82 12 -80 -143 -297 -391 -514 -676 -592
-461 -127 -1029 69 -1468 508 -429 429 -646 958 -703 1711 -16 207 -5 730 21
1065 11 143 23 375 27 515 5 215 3 269 -11 344 -10 49 -24 103 -33 120 -33 66
-209 286 -462 581 -201 234 -813 926 -834 943 -9 8 -21 12 -26 10 -19 -6 -563
-553 -571 -573 -5 -11 -85 -112 -179 -225 -95 -113 -170 -210 -169 -216 2 -7
185 -143 408 -304 670 -484 1099 -809 1187 -902 88 -92 119 -221 258 -1071
186 -1137 393 -1635 885 -2127 210 -210 429 -370 664 -485 227 -111 413 -163
622 -172 316 -15 593 93 814 317 60 60 86 98 131 185 57 110 108 237 154 385
39 122 59 118 43 -10 -23 -190 -65 -310 -161 -453 -315 -471 -935 -595 -1617
-325 -513 203 -913 599 -1185 1171 -181 381 -291 755 -446 1523 -113 560 -153
711 -221 831 -30 53 -87 105 -248 224 -270 200 -1444 984 -1459 974 -5 -3 -64
-101 -132 -218 -67 -116 -131 -225 -143 -242 -30 -41 -136 -241 -136 -257 0
-7 -52 -123 -114 -258 -63 -135 -112 -248 -108 -252 4 -3 210 -84 457 -178
901 -344 1002 -383 1142 -445 257 -113 366 -198 442 -345 23 -44 80 -178 125
-298 125 -326 176 -442 315 -727 254 -518 430 -781 731 -1089 601 -615 1383
-910 2000 -755 362 91 622 341 726 699 22 76 35 146 75 408 17 106 30 97 49
-33 39 -272 -46 -549 -238 -773 -146 -171 -385 -301 -672 -363 -121 -27 -441
-37 -587 -20 -693 85 -1248 470 -1738 1206 -164 246 -270 437 -507 915 -346
696 -416 808 -549 876 -154 78 -815 313 -1644 585 -196 64 -235 75 -235 65 0
-15 -133 -498 -144 -526 -16 -39 -56 -224 -60 -279 -2 -20 -23 -148 -46 -284
-32 -184 -41 -250 -32 -256 10 -6 167 -24 832 -92 493 -50 766 -82 897 -104
351 -59 425 -110 675 -460 283 -397 507 -665 797 -955 311 -311 577 -504 924
-670 698 -334 1423 -358 1920 -63 114 67 286 239 346 347 88 155 131 323 131
505 0 97 -22 361 -36 439 -10 51 14 39 42 -21 56 -124 92 -352 79 -512 -39
-495 -383 -834 -1000 -986 -168 -41 -320 -59 -500 -59 -444 0 -848 133 -1280
421 -226 150 -433 328 -700 600 -161 165 -259 274 -634 704 -206 236 -374 396
-466 443 -98 49 -441 83 -1475 147 -223 14 -447 28 -497 31 l-93 6 0 -280 c0
-191 -3 -283 -11 -288 -6 -3 -8 -16 -4 -28 4 -11 11 -68 15 -126 19 -235 62
-655 68 -662 8 -8 53 -1 887 132 781 124 783 124 990 125 162 0 187 -2 246
-23 89 -30 172 -88 391 -270 351 -291 656 -507 1000 -708 323 -189 669 -321
1046 -399 71 -15 25 -25 -113 -25 l-146 0 -122 46 c-380 145 -682 315 -1327
748 -495 333 -634 414 -764 447 -96 24 -420 -27 -1341 -212 -762 -153 -695
-138 -695 -156 0 -9 29 -126 65 -259 36 -134 65 -251 65 -262 0 -23 73 -251
89 -278 6 -10 52 -129 101 -263 49 -134 91 -246 93 -248 3 -2 294 125 647 282
857 381 1012 444 1187 480 151 31 254 12 465 -86 73 -34 192 -88 263 -121 386
-178 942 -364 1275 -428 284 -54 642 -74 890 -51 461 44 855 175 1180 392 150
100 339 282 420 403 189 283 236 578 140 868 -58 172 -126 281 -310 498 -67
78 -119 144 -116 147 3 3 24 -6 48 -20 165 -98 354 -330 437 -533 56 -138 66
-195 65 -374 0 -150 -3 -173 -28 -254 -61 -202 -166 -373 -338 -551 -117 -122
-226 -215 -251 -215 -9 0 -18 -8 -21 -17 -12 -37 -275 -193 -447 -267 -461
-197 -988 -228 -1619 -95 -239 50 -562 148 -955 289 -575 206 -722 249 -876
257 -71 4 -118 2 -145 -7 -71 -22 -355 -146 -569 -247 -357 -170 -1207 -597
-1212 -610 -3 -7 56 -118 131 -247 75 -129 136 -239 136 -245 0 -12 98 -163
135 -208 15 -18 94 -128 176 -245 82 -117 154 -214 159 -216 5 -2 73 50 152
115 608 505 1082 877 1290 1014 115 75 180 105 249 113 80 8 312 -8 814 -59
626 -63 820 -77 1075 -79 229 -1 304 6 510 46 443 85 863 276 1195 543 124
100 317 301 395 413 312 443 342 919 79 1272 -66 89 -169 191 -259 258 -60 44
-276 184 -327 210 -26 14 -54 6 -46 -14 3 -8 1 -14 -5 -14 -15 0 -28 22 -30
52 -2 26 0 27 31 22 100 -18 267 -96 415 -196 151 -102 313 -280 384 -423 59
-118 98 -286 98 -420 0 -281 -146 -633 -390 -939 -378 -475 -913 -756 -1599
-841 -359 -44 -689 -40 -1361 15 -572 47 -761 49 -903 10 -103 -29 -394 -263
-1087 -875 -428 -377 -491 -436 -488 -451 4 -19 548 -564 573 -574 11 -5 112
-85 225 -179 113 -95 210 -170 216 -169 6 2 132 171 279 377 557 781 855 1154
980 1226 78 46 214 73 1035 205 525 84 909 168 1117 246 215 79 472 223 687
384 514 384 845 858 921 1319 45 269 -16 556 -169 795 -110 172 -335 330 -611
430 -55 20 -113 43 -130 51 l-30 14 35 0 c19 1 78 -10 131 -24 439 -111 720
-366 818 -740 43 -160 45 -390 5 -583 -38 -189 -149 -458 -264 -642 -300 -480
-830 -891 -1407 -1090 -234 -81 -462 -132 -918 -205 -500 -80 -818 -155 -972
-231 -162 -79 -388 -341 -722 -839 -215 -320 -553 -854 -546 -865 3 -5 101
-63 218 -131 116 -67 226 -131 242 -143 41 -30 241 -136 257 -136 7 0 123 -52
258 -114 135 -63 248 -112 252 -108 4 4 55 135 113 292 423 1140 568 1467 701
1589 68 62 212 135 689 346 975 432 1234 579 1539 875 416 403 693 884 803
1390 14 68 18 127 17 295 0 195 -2 217 -27 308 -85 315 -331 612 -586 708
-151 56 -331 94 -496 104 -49 4 -106 8 -125 11 -60 10 -11 24 121 36 212 20
417 -13 587 -93 286 -133 476 -396 554 -767 31 -146 33 -490 4 -652 -86 -486
-313 -911 -696 -1304 -321 -330 -578 -492 -1293 -815 -479 -217 -755 -367
-866 -474 -170 -163 -347 -580 -641 -1514 -119 -378 -138 -443 -126 -443 15 0
498 -133 526 -144 39 -16 224 -56 279 -60 20 -2 148 -23 284 -46 183 -32 250
-41 256 -32 4 6 15 103 24 214 83 958 162 1513 247 1743 34 92 180 228 620
582 479 384 638 521 831 713 243 242 361 402 505 685 131 255 214 486 268 744
169 801 -53 1416 -607 1680 -143 68 -185 76 -417 76 -194 0 -257 -7 -422 -41
-45 -9 -32 12 20 34 220 95 521 118 727 57 409 -121 690 -496 796 -1060 26
-142 36 -420 20 -576 -46 -445 -240 -927 -530 -1316 -182 -243 -362 -419 -826
-803 -154 -128 -302 -253 -330 -278 -139 -126 -352 -344 -386 -396 -107 -163
-181 -557 -219 -1171 -8 -137 -40 -856 -40 -911 0 -12 44 -14 279 -14 188 0
282 -4 286 -11 4 -6 14 -7 24 -4 9 4 66 11 126 15 212 16 660 62 667 68 4 4
-18 149 -48 322 -137 792 -184 1139 -191 1425 -8 315 -4 326 331 780 528 716
671 930 820 1220 131 255 220 551 268 885 21 149 17 634 -6 780 -107 681 -445
1106 -970 1219 -223 49 -454 10 -744 -125 -52 -24 -100 -43 -106 -41 -15 5 87
78 174 125 256 139 543 172 790 91 177 -58 305 -141 461 -298 185 -187 318
-408 410 -680 87 -263 115 -469 106 -806 -8 -310 -45 -522 -139 -794 -117
-340 -258 -583 -711 -1233 -152 -218 -293 -439 -381 -597 -82 -148 -96 -211
-96 -430 0 -324 50 -632 229 -1422 45 -196 81 -360 81 -363 0 -13 44 -4 277
59 133 36 250 65 261 65 22 0 251 73 278 89 10 6 129 52 263 101 134 49 246
91 248 93 2 2 -89 208 -203 458 -345 761 -490 1105 -515 1219 -20 92 -6 255
34 410 41 156 85 282 227 650 268 693 369 1052 410 1463 20 190 8 511 -23 677
-47 242 -109 432 -216 655 -114 236 -219 391 -381 559 -351 364 -765 473
-1190 315 -108 -40 -184 -96 -369 -271 -57 -54 -106 -96 -109 -94 -10 11 52
87 146 178 191 184 382 280 614 308 505 60 1076 -335 1378 -955 183 -375 282
-886 251 -1291 -29 -384 -89 -619 -335 -1313 -211 -593 -283 -854 -272 -975
20 -215 109 -478 298 -881 114 -242 498 -976 515 -982 7 -3 118 56 247 131
129 75 239 136 245 136 12 0 163 98 208 135 18 15 128 94 245 176 117 82 214
154 216 159 2 5 -109 143 -245 307 -674 808 -928 1166 -964 1359 -16 84 -6
290 31 609 60 531 80 738 92 970 25 492 -29 874 -178 1253 -356 904 -1022
1464 -1657 1394 -180 -20 -346 -74 -469 -154 -62 -40 -204 -177 -305 -293 -62
-71 -67 -62 -15 23 206 340 574 524 963 482 324 -35 625 -174 923 -428 343
-292 645 -816 760 -1318 82 -361 90 -698 30 -1444 -35 -439 -40 -884 -10 -970
46 -135 147 -310 293 -506 172 -233 371 -458 916 -1042 27 -29 55 -52 63 -50
19 4 564 548 574 573 5 11 85 112 179 225 94 112 171 209 171 215 0 5 -147
114 -327 240 -738 520 -1093 805 -1229 988 -72 97 -104 222 -174 677 -132 867
-192 1149 -312 1470 -287 771 -1016 1467 -1676 1599 -275 56 -505 29 -738 -84
-243 -118 -369 -246 -504 -516 -57 -112 -74 -120 -40 -19 70 207 215 399 393
519 192 130 479 195 748 171 439 -40 837 -227 1199 -565 365 -341 598 -717
754 -1215 51 -165 100 -371 152 -640 159 -827 210 -1039 281 -1159 46 -77 202
-243 326 -348 201 -168 541 -404 942 -653 83 -51 198 -124 258 -162 59 -38
111 -66 116 -63 5 3 64 101 132 218 67 116 131 226 143 242 30 41 136 241 136
257 0 7 52 123 114 258 63 135 112 248 108 251 -4 4 -151 59 -327 124 -895
327 -1324 514 -1499 654 -93 75 -165 207 -401 741 -388 879 -580 1205 -895
1520 -373 374 -859 653 -1312 754 -515 114 -944 5 -1247 -320 -134 -143 -195
-259 -247 -469 -15 -60 -31 -114 -35 -120 -25 -27 6 169 45 281 105 309 344
537 679 649 181 60 251 70 517 70 229 -1 253 -2 375 -28 72 -16 186 -47 255
-70 138 -45 406 -175 545 -262 327 -207 594 -472 819 -813 128 -194 200 -327
452 -837 364 -736 415 -816 609 -946 239 -161 595 -302 1375 -545 334 -103
400 -122 400 -111 0 15 132 498 144 527 16 39 56 224 60 279 2 20 23 148 46
284 32 183 41 250 32 256 -6 4 -103 15 -214 24 -1083 94 -1628 179 -1802 281
-58 34 -218 203 -372 391 -72 88 -191 234 -264 325 -330 405 -636 730 -840
892 -390 310 -928 529 -1448 588 -134 16 -478 7 -589 -14 -435 -84 -758 -332
-918 -705 -47 -111 -65 -204 -72 -374 -7 -166 -20 -172 -30 -12 -26 429 239
827 686 1032 465 213 1001 224 1581 33 563 -185 914 -456 1580 -1220 156 -179
365 -406 464 -506 162 -161 189 -184 256 -216 263 -125 684 -186 1490 -218
146 -5 325 -13 398 -16 l132 -6 0 280 c0 192 3 283 11 288 6 3 8 16 4 28 -4
11 -11 68 -15 126 -19 237 -62 655 -69 662 -3 4 -44 1 -91 -8 -1118 -195
-1682 -266 -1878 -235 -128 20 -218 74 -732 441 -832 595 -1151 771 -1593 880
-697 171 -1430 87 -1894 -219 -280 -183 -455 -449 -519 -787 -24 -129 -15
-262 30 -434 19 -74 33 -136 31 -138 -12 -13 -73 154 -96 263 -21 97 -16 305
9 406 52 212 154 384 336 564 140 140 278 236 461 325 301 146 606 210 999
210 419 0 763 -79 1156 -267 225 -107 337 -174 805 -483 545 -359 747 -481
850 -513 268 -85 702 -36 1706 192 196 45 360 81 363 81 13 0 4 40 -59 276
-36 134 -65 251 -65 262 0 23 -73 251 -89 278 -6 10 -52 129 -101 263 -49 134
-91 246 -93 248 -2 1 -170 -73 -373 -166 -962 -440 -1354 -591 -1534 -591
-144 0 -255 34 -725 222 -610 244 -869 329 -1215 397 -289 57 -634 75 -875 47
-413 -48 -804 -190 -1135 -411 -486 -324 -726 -757 -671 -1211 7 -54 14 -108
17 -119 4 -17 3 -18 -5 -4 -38 60 -55 302 -32 444 15 90 70 254 115 343 125
249 359 503 623 678 292 193 668 325 1083 380 184 24 552 14 745 -20 280 -49
485 -106 971 -272 518 -177 863 -274 973 -274 250 0 712 177 1371 525 102 53
263 138 359 188 95 50 175 97 178 104 3 7 -56 118 -131 247 -75 129 -136 239
-136 245 0 12 -98 163 -135 208 -15 18 -94 128 -176 245 -82 117 -154 214
-158 216 -5 2 -128 -95 -273 -215 -745 -616 -1176 -940 -1337 -1005 -52 -22
-70 -23 -266 -22 -178 1 -263 7 -560 42 -565 66 -584 67 -950 67 -264 -1 -370
-5 -475 -18 -484 -63 -822 -185 -1185 -427 -144 -96 -245 -178 -368 -299 -265
-259 -428 -521 -503 -811 -24 -92 -28 -124 -28 -260 -1 -117 3 -173 17 -229
19 -77 69 -215 106 -292 l22 -44 -22 25 c-35 40 -87 153 -113 243 -109 375 -2
821 293 1227 310 427 868 781 1441 914 355 82 697 94 1360 45 364 -27 950 -33
1015 -10 306 104 637 355 1385 1050 80 74 169 157 198 184 29 27 52 55 50 63
-4 19 -548 564 -573 574 -11 5 -112 85 -225 179 -112 94 -209 171 -215 171 -6
0 -36 -35 -65 -77 -30 -43 -164 -231 -299 -418 -525 -730 -787 -1057 -896
-1120 -106 -63 -268 -100 -750 -175 -839 -129 -1225 -229 -1640 -425 -649
-306 -1210 -965 -1345 -1581 -88 -401 8 -788 255 -1040 97 -98 167 -146 350
-241 136 -70 154 -92 44 -54 -265 92 -472 269 -590 503 -85 169 -119 326 -119
551 0 205 33 394 105 597 45 127 159 350 243 476 280 418 754 792 1252 987
255 100 462 153 980 252 467 89 701 145 904 215 238 81 534 442 1108 1351 85
134 171 270 192 302 20 31 34 62 31 66 -3 5 -101 64 -218 132 -116 67 -225
131 -242 143 -41 30 -241 136 -257 136 -7 0 -123 52 -258 114 -135 63 -248
112 -251 108 -4 -4 -44 -106 -89 -227 -409 -1090 -617 -1581 -708 -1672 -81
-81 -214 -151 -687 -363 -391 -174 -686 -318 -865 -421 -573 -329 -886 -621
-1155 -1075 -250 -422 -380 -928 -335 -1304 36 -301 149 -534 349 -723 117
-110 217 -167 389 -221 69 -22 329 -76 363 -76 5 0 9 -4 9 -10 0 -13 -114 -13
-205 0 -119 17 -226 49 -330 99 -303 145 -503 423 -585 813 -101 480 16 1056
309 1527 349 558 740 881 1506 1245 593 281 923 468 1015 572 117 134 264 443
420 883 69 198 330 1023 330 1046 0 8 -2 15 -4 15 -15 0 -498 133 -526 144
-39 16 -224 56 -279 60 -20 2 -148 23 -284 46 -187 33 -250 41 -256 32 -4 -7
-13 -72 -20 -145 -55 -606 -141 -1351 -186 -1624 -31 -185 -46 -236 -85 -295
-52 -78 -243 -253 -555 -508 -426 -348 -557 -462 -751 -655 -250 -249 -412
-446 -537 -651 -395 -648 -490 -1537 -226 -2103 81 -175 220 -343 366 -444 78
-55 216 -120 328 -154 84 -25 102 -27 260 -27 142 1 193 5 305 27 74 15 146
30 160 34 22 6 24 5 11 -10 -19 -24 -154 -64 -296 -89 -330 -57 -640 36 -880
264 -406 385 -572 1115 -408 1788 104 430 320 854 599 1180 175 204 273 297
664 630 141 119 299 258 353 309 125 118 321 325 357 377 106 152 175 526 215
1154 12 188 45 904 45 969 0 8 -86 11 -279 11 -176 0 -282 4 -286 10 -7 11
-19 13 -28 4z m109 -5792 c0 -152 5 -248 17 -321 9 -58 17 -116 16 -130 -1
-26 -1 -26 -14 4 -43 98 -71 357 -56 507 10 94 24 158 33 158 2 0 3 -98 4
-218z m-201 66 c29 -146 74 -291 139 -443 50 -117 56 -143 25 -105 -75 89
-172 357 -198 543 -8 59 -5 144 5 134 2 -2 15 -60 29 -129z m390 6 c-32 -117
-60 -256 -75 -374 -16 -120 -29 -147 -30 -60 0 150 44 367 96 475 15 30 29 54
30 52 2 -2 -7 -44 -21 -93z m-476 -287 c27 -45 91 -136 140 -201 50 -66 88
-122 85 -125 -11 -10 -160 157 -217 242 -69 103 -128 222 -156 311 -35 114
-23 107 39 -22 32 -67 81 -159 109 -205z m-287 88 c87 -115 227 -254 376 -374
56 -45 102 -84 102 -87 0 -11 -115 58 -190 114 -147 109 -286 265 -354 399
-48 95 -40 89 66 -52z m840 -82 c-27 -70 -57 -152 -66 -180 -10 -29 -26 -63
-36 -75 l-19 -23 -1 21 c-1 75 153 440 167 397 2 -6 -18 -69 -45 -140z m-683
-292 c76 -33 185 -76 242 -96 108 -37 155 -65 111 -65 -41 0 -270 80 -360 125
-79 40 -158 94 -140 95 4 0 70 -27 147 -59z m106 -172 c61 -6 114 -16 120 -20
22 -21 -178 0 -257 26 -41 14 -41 14 -8 10 19 -2 85 -9 145 -16z m446 -12 c-1
-12 -15 -9 -19 4 -3 6 1 10 8 8 6 -3 11 -8 11 -12z m-1 -157 c0 -11 -4 -20
-10 -20 -5 0 -10 9 -10 20 0 11 5 20 10 20 6 0 10 -9 10 -20z m37 -22 c-3 -7
-5 -2 -5 12 0 14 2 19 5 13 2 -7 2 -19 0 -25z m168 -78 c204 -265 280 -666
181 -958 -110 -322 -396 -595 -833 -795 l-102 -47 -121 0 c-125 0 -153 11 -77
30 362 93 603 218 794 412 190 192 280 388 290 634 10 220 -24 359 -158 648
-43 94 -79 175 -79 180 0 15 56 -42 105 -104z"/>
</g>
</svg>
